<?xml version="1.0" standalone="no"?>
<!DOCTYPE svg PUBLIC "-//W3C//DTD SVG 20010904//EN"
 "http://www.w3.org/TR/2001/REC-SVG-20010904/DTD/svg10.dtd">
<svg version="1.0" xmlns="http://www.w3.org/2000/svg"
 width="70.000000pt" height="70.000000pt" viewBox="0 0 70.000000 70.000000"
 preserveAspectRatio="xMidYMid meet">
<metadata>
Created by potrace 1.11, written by Peter Selinger 2001-2013
</metadata>
<g transform="translate(0.000000,70.000000) scale(0.100000,-0.100000)"
fill="#000000" stroke="none">
<path d="M294 659 c-147 -55 -219 -223 -156 -361 28 -60 91 -121 147 -143 l44
-16 -25 -65 c-23 -62 -23 -64 -4 -54 11 6 20 7 20 3 0 -4 5 0 11 11 9 15 13
16 20 5 6 -10 9 -7 10 11 l1 25 8 -25 c4 -14 8 -20 9 -13 1 7 7 10 15 7 8 -3
19 3 25 15 17 30 14 33 -16 15 -23 -13 -21 -10 7 15 19 17 40 31 47 31 6 0 13
3 15 8 2 4 26 24 54 45 96 69 141 158 130 255 -8 70 -26 111 -70 160 -72 79
-191 108 -292 71z"/>
<path d="M485 120 c-3 -5 -4 -14 -1 -19 3 -5 -1 -11 -9 -14 -9 -4 -12 -1 -8 9
3 7 0 14 -7 14 -6 0 -8 -5 -4 -12 5 -7 2 -9 -7 -6 -10 4 -14 -2 -16 -20 -1
-18 1 -21 8 -11 7 12 9 12 9 -1 0 -10 3 -11 8 -4 4 6 15 10 24 8 10 -1 20 2
24 7 3 5 9 7 13 5 4 -3 13 4 20 16 7 11 8 17 3 14 -6 -3 -12 -3 -15 1 -2 5 -3
3 -1 -3 1 -6 -6 -15 -16 -22 -15 -9 -17 -7 -17 14 0 14 4 21 10 17 6 -3 7 -1
3 5 -9 15 -13 15 -21 2z"/>
<path d="M585 120 c-3 -6 1 -7 9 -4 18 7 21 14 7 14 -6 0 -13 -4 -16 -10z"/>
<path d="M556 95 c-9 -26 -7 -32 5 -12 6 10 9 21 6 23 -2 3 -7 -2 -11 -11z"/>
</g>
</svg>
